<?xml version="1.0" encoding="utf-8"?>
<!-- Generator: Adobe Illustrator 15.1.0, SVG Export Plug-In . SVG Version: 6.00 Build 0)  -->
<!DOCTYPE svg PUBLIC "-//W3C//DTD SVG 1.1//EN" "http://www.w3.org/Graphics/SVG/1.1/DTD/svg11.dtd">
<svg version="1.1" id="Layer_1" xmlns="http://www.w3.org/2000/svg" xmlns:xlink="http://www.w3.org/1999/xlink" x="0px" y="0px"
	 width="53.857px" height="55.135px" viewBox="0 0 53.857 55.135" enable-background="new 0 0 53.857 55.135" xml:space="preserve">
<g>
	<polygon points="6.111,8.491 33.041,0 53.857,19.076 47.746,46.645 20.817,55.135 0,36.059 	"/>
	<g>
		<path fill="#F3A81D" d="M20.651,17.415v10.152h-1.539v-4.313h-4.129v4.313h-1.539V17.429h1.539v4.285h4.129v-4.3H20.651z"/>
		<path fill="#F3A81D" d="M24.186,27.567h-1.539V17.429h1.539V27.567z"/>
		<path fill="#F3A81D" d="M27.735,17.415v7.697l4.533-7.697h1.788l-5.98,10.152h-1.888V17.415H27.735z"/>
		<path fill="#F3A81D" d="M40.535,17.415v1.54h-3.64v2.752h2.81v1.54h-2.81v2.781h3.64v1.539h-5.179V17.415H40.535z"/>
	</g>
	<g>
		<path fill="#F3A81D" d="M20.279,40.451c-0.705-0.705-1.057-1.555-1.057-2.553v-6.641h1.547v6.641c0,0.572,0.201,1.059,0.603,1.461
			c0.407,0.406,0.894,0.609,1.461,0.609c0.572,0,1.059-0.203,1.461-0.609c0.407-0.402,0.61-0.889,0.61-1.461v-6.641h1.547v6.641
			c0,0.998-0.355,1.848-1.064,2.553c-0.705,0.705-1.556,1.057-2.554,1.057C21.84,41.508,20.988,41.156,20.279,40.451z"/>
		<path fill="#F3A81D" d="M30.113,41.416h-1.539V31.264h3.746c0.809,0,1.499,0.289,2.071,0.865c0.577,0.574,0.866,1.266,0.866,2.08
			c0,0.809-0.289,1.498-0.866,2.07c-0.572,0.572-1.263,0.859-2.071,0.859h-2.207V41.416z M30.113,35.6h2.207
			c0.383,0,0.711-0.137,0.986-0.412c0.27-0.27,0.404-0.596,0.404-0.979c0-0.389-0.135-0.719-0.404-0.994
			c-0.275-0.273-0.604-0.41-0.986-0.41h-2.207V35.6z"/>
	</g>
</g>
</svg>
