<?xml version="1.0" encoding="utf-8"?>
<!-- Generator: Adobe Illustrator 15.1.0, SVG Export Plug-In . SVG Version: 6.00 Build 0)  -->
<!DOCTYPE svg PUBLIC "-//W3C//DTD SVG 1.1//EN" "http://www.w3.org/Graphics/SVG/1.1/DTD/svg11.dtd">
<svg version="1.1" id="Layer_1" xmlns="http://www.w3.org/2000/svg" xmlns:xlink="http://www.w3.org/1999/xlink" x="0px" y="0px"
	 width="188.344px" height="39.189px" viewBox="0 0 188.344 39.189" enable-background="new 0 0 188.344 39.189"
	 xml:space="preserve">
<g>
	<path fill="#4E4E4E" d="M26.315,17.354H2.496v20.247H0V0.227h2.496v14.633h23.82V0.227h2.496v37.375h-2.496V17.354z"/>
	<path fill="#4E4E4E" d="M39.756,0.227v37.375h-2.609V0.227H39.756z"/>
	<path fill="#4E4E4E" d="M48.773,0l14.122,32.895c0.454-1.021,0.992-2.269,1.616-3.743s1.313-3.081,2.07-4.821
		c0.756-1.738,1.531-3.544,2.325-5.416c0.794-1.871,1.588-3.715,2.382-5.529C73.104,9.15,75.012,4.688,77.017,0l2.212,1.021
		L62.895,39.189L46.448,0.964L48.773,0z"/>
	<path fill="#4E4E4E" d="M84.729,37.602V0.227h21.324v2.496H87.224v11.626h12.704v2.495H87.224v18.263h20.133v2.495H84.729z"/>
	<path fill="#4E4E4E" d="M144.221,37.999c-2.079,0-4.026-0.379-5.841-1.135c-1.815-0.756-3.403-1.786-4.765-3.091
		c-1.36-1.305-2.438-2.836-3.232-4.594s-1.19-3.62-1.19-5.587V0.227h2.495v23.366c0,1.665,0.32,3.215,0.964,4.651
		c0.643,1.437,1.531,2.693,2.666,3.771c1.134,1.077,2.467,1.928,3.998,2.552s3.166,0.936,4.905,0.936
		c1.702,0,3.309-0.312,4.821-0.936c1.512-0.624,2.836-1.475,3.97-2.552c1.135-1.078,2.022-2.335,2.666-3.771
		c0.642-1.437,0.964-2.986,0.964-4.651V0.227h2.495v23.366c0,1.967-0.396,3.829-1.19,5.587s-1.863,3.289-3.205,4.594
		s-2.921,2.335-4.735,3.091S146.263,37.999,144.221,37.999z"/>
	<path fill="#4E4E4E" d="M167.189,37.602V0.227h10.038c1.512,0,2.939,0.304,4.282,0.908c1.342,0.604,2.523,1.418,3.545,2.438
		c1.021,1.021,1.823,2.222,2.41,3.602c0.586,1.38,0.879,2.863,0.879,4.452c0,1.588-0.293,3.072-0.879,4.451
		c-0.587,1.381-1.371,2.581-2.354,3.602c-0.983,1.021-2.146,1.825-3.488,2.41c-1.343,0.587-2.77,0.88-4.282,0.88h-7.656v14.632
		H167.189z M169.685,2.723v17.751h7.656c1.172,0,2.269-0.235,3.29-0.709c1.021-0.472,1.918-1.105,2.693-1.899
		c0.774-0.794,1.39-1.729,1.844-2.808c0.453-1.077,0.681-2.221,0.681-3.431c0-1.248-0.228-2.411-0.681-3.488
		c-0.454-1.077-1.069-2.014-1.844-2.808c-0.775-0.794-1.683-1.427-2.722-1.899c-1.041-0.473-2.146-0.709-3.318-0.709H169.685z"/>
</g>
</svg>
