<?xml version="1.0" encoding="utf-8"?>
<!-- Generator: Adobe Illustrator 15.1.0, SVG Export Plug-In . SVG Version: 6.00 Build 0)  -->
<!DOCTYPE svg PUBLIC "-//W3C//DTD SVG 1.1//EN" "http://www.w3.org/Graphics/SVG/1.1/DTD/svg11.dtd">
<svg version="1.1" id="Layer_1" xmlns="http://www.w3.org/2000/svg" xmlns:xlink="http://www.w3.org/1999/xlink" x="0px" y="0px"
	 width="140.184px" height="35px" viewBox="0 0 140.184 35" enable-background="new 0 0 140.184 35" xml:space="preserve">
<g>
	<path fill="#010101" d="M135.346,30.5h-7.127V12.887h7.127V30.5z M128.704,30.011h6.153V13.375h-6.153V30.011z"/>
	<path fill="#010101" d="M112.148,30.5h-7.129V12.887h7.129V30.5z M105.508,30.011h6.153V13.375h-6.153V30.011z"/>
	<path fill="#010101" d="M128.704,30.5h-17.043v-26h17.043V30.5z M112.148,30.011h16.07V4.989h-16.07V30.011z"/>
	<path fill="#010101" d="M121.517,13.702h-2.666v-2.215h-2.234V8.784h2.234V6.569h2.666v2.215h2.232v2.703h-2.232V13.702z
		 M119.338,13.214h1.691v-2.215h2.232V9.272h-2.232V7.058h-1.691v2.214h-2.232v1.727h2.232V13.214z"/>
	<path fill="#010101" d="M123.613,30.5h-6.861V19.718h6.861V30.5z M117.24,30.011h5.885v-9.805h-5.885V30.011z"/>
	<rect x="102.181" y="30.011" fill="#010101" width="36.006" height="0.489"/>
</g>
<path fill="#010101" d="M35.321,15.897c0.296-0.894,0.435-1.739,0.435-2.592c0-2.974-1.621-5.713-4.23-7.15
	c-1.154-0.637-2.493-0.974-3.875-0.974c-2.123,0-4.182,0.792-5.647,2.174L21.489,7.84l-0.515-0.483
	c-1.471-1.382-3.533-2.175-5.657-2.175c-1.382,0-2.72,0.336-3.87,0.973c-2.609,1.437-4.229,4.176-4.229,7.149
	c0,0.841,0.136,1.697,0.382,2.411c0.108,0.461,0.25,0.885,0.456,1.377l0.436,1.04H4.478c-0.127,0-0.233,0.107-0.233,0.234
	s0.106,0.234,0.233,0.234h11.477c0.094,0,0.179-0.055,0.216-0.141l1.945-4.48l1.848,7.784c0.022,0.092,0.096,0.161,0.194,0.177
	c0.138-0.006,0.187-0.04,0.229-0.112l3.049-5.007h3.435c0.126,0,0.233-0.107,0.233-0.234c0-0.129-0.104-0.234-0.233-0.234h-3.565
	c-0.081,0-0.157,0.042-0.199,0.11l-2.829,4.639l-1.871-7.914c-0.023-0.102-0.105-0.171-0.206-0.18
	c-0.107-0.014-0.197,0.057-0.233,0.14l-2.169,4.984H9.114l-0.213-0.394c-0.436-0.807-0.707-1.485-0.853-2.135
	c-0.238-0.716-0.368-1.513-0.368-2.3c0-2.802,1.528-5.384,3.989-6.739c1.085-0.601,2.342-0.918,3.632-0.918
	c2.325,0,4.568,1.028,5.999,2.75c0.068,0.081,0.295,0.085,0.361,0.002c1.431-1.724,3.673-2.752,5.998-2.752
	c1.292,0,2.551,0.319,3.639,0.923c2.454,1.352,3.98,3.935,3.98,6.738c0,0.823-0.131,1.605-0.411,2.462
	c-1.204,5.461-11.77,12.481-12.97,13.264l-0.413,0.27l-0.41-0.272c-1.285-0.85-3.817-2.599-6.348-4.762
	c-0.05-0.042-0.108-0.052-0.148-0.052c-0.042,0-0.122,0.012-0.188,0.086c-0.076,0.092-0.064,0.239,0.035,0.325
	c2.907,2.488,5.778,4.404,6.878,5.112c0.177,0.115,0.222,0.084,0.312,0.029C26.217,26.844,34.275,20.634,35.321,15.897z"/>
<g>
	<path fill="#010101" d="M82.002,26.772c0.183,0.018,0.267-0.032,0.303-0.114l5.572-12.346c0.043-0.096,0.014-0.213-0.072-0.276
		c-5.129-3.845-11.237-5.877-17.664-5.877c-3.264,0-6.47,0.53-9.53,1.575c-2.958,1.01-5.728,2.482-8.231,4.375
		c-0.086,0.065-0.115,0.18-0.07,0.278l5.559,12.318c0.024,0.055,0.071,0.099,0.128,0.12l0.081,0.015c0.031,0,0.063-0.007,0.091-0.02
		c3.775-1.711,7.803-2.577,11.974-2.577C74.271,24.244,78.262,25.095,82.002,26.772z M58.189,26.306L52.8,14.363l0.329-0.238
		c4.967-3.603,10.85-5.507,17.012-5.507c6.117,0,11.965,1.879,16.91,5.433l0.332,0.239l-5.399,11.968l-0.448-0.188
		c-3.61-1.515-7.443-2.283-11.395-2.283c-3.995,0-7.865,0.783-11.502,2.328L58.189,26.306z"/>
	<path fill="#010101" d="M84.146,15.92l0.092,0.02c0.091,0,0.174-0.054,0.211-0.136l0.278-0.616
		c0.034-0.075,0.018-0.143,0.005-0.176c-0.012-0.033-0.045-0.093-0.119-0.127c-0.027-0.003-0.053-0.005-0.076-0.005
		c-0.133,0-0.197,0.05-0.229,0.119l-0.277,0.616c-0.034,0.076-0.018,0.143-0.006,0.176C84.038,15.824,84.07,15.885,84.146,15.92z"/>
	<path fill="#010101" d="M83.35,18.075c-0.012-0.033-0.044-0.093-0.119-0.127c-0.027-0.003-0.053-0.005-0.076-0.005
		c-0.132,0-0.195,0.049-0.227,0.118l-2.325,5.149c-0.052,0.114-0.001,0.251,0.114,0.303l0.095,0.021c0.071,0,0.165-0.035,0.21-0.136
		l2.324-5.149C83.379,18.176,83.363,18.108,83.35,18.075z"/>
	<path fill="#010101" d="M75.389,17.99v-3.533c0-0.126-0.102-0.229-0.229-0.229h-3.073v-3.073c0-0.127-0.103-0.229-0.229-0.229
		h-3.532c-0.127,0-0.229,0.103-0.229,0.229v3.073h-3.073c-0.127,0-0.229,0.103-0.229,0.229v3.533c0,0.126,0.102,0.229,0.229,0.229
		h3.073v3.073c0,0.127,0.103,0.229,0.229,0.229h3.532c0.126,0,0.229-0.103,0.229-0.229v-3.073h3.073
		C75.287,18.219,75.389,18.116,75.389,17.99z M74.932,17.761h-3.073c-0.127,0-0.229,0.103-0.229,0.229v3.072h-3.074V17.99
		c0-0.127-0.103-0.229-0.229-0.229h-3.073v-3.074h3.073c0.126,0,0.229-0.103,0.229-0.229v-3.072h3.074v3.072
		c0,0.127,0.103,0.229,0.229,0.229h3.073V17.761z"/>
</g>
</svg>
