<?xml version="1.0" encoding="utf-8"?>
<!-- Generator: Adobe Illustrator 15.1.0, SVG Export Plug-In . SVG Version: 6.00 Build 0)  -->
<!DOCTYPE svg PUBLIC "-//W3C//DTD SVG 1.1//EN" "http://www.w3.org/Graphics/SVG/1.1/DTD/svg11.dtd">
<svg version="1.1" id="Layer_1" xmlns="http://www.w3.org/2000/svg" xmlns:xlink="http://www.w3.org/1999/xlink" x="0px" y="0px"
	 width="140.183px" height="35px" viewBox="0 0 140.183 35" enable-background="new 0 0 140.183 35" xml:space="preserve">
<g>
	<path fill-rule="evenodd" clip-rule="evenodd" fill="#F2A81E" d="M21.546,33.199c-2.038-1.461-4.253-2.742-6.248-4.245
		c-0.99-0.772-2.006-1.519-2.963-2.323c-0.537-0.344-2.656-2.123-2.964-2.242c-2.779-0.051-5.764,0.104-8.41-0.08
		C0.469,23.998,0.084,23.582,0,22.867c0.053-0.615,0.326-1.01,0.641-1.362c0.795-0.364,1.782-0.241,2.723-0.241
		c2.762,0,5.965,0.066,8.651-0.08c0.395-0.164,0.712-0.408,0.881-0.801c0.108-0.158,0.153-0.381,0.24-0.561
		c0.137-0.129,0.031-0.502,0.32-0.48c0.311,1.479,0.871,2.707,1.202,4.166c0.583,1.205,0.474,3.104,2.163,3.203
		c1.194-0.114,1.479-1.138,1.682-2.242c0.764-3.162,1.612-6.238,2.323-9.452c0.228,0.119,0.223,0.471,0.24,0.801
		c0.122,0.199,0.155,0.486,0.16,0.801c0.222,0.446,0.227,1.109,0.4,1.602c0.069,0.599,0.276,1.059,0.321,1.682
		c0.135,0.533,0.417,0.918,0.801,1.202c0.992,0.262,2.202,0.159,3.444,0.159c1.207,0,2.473,0.063,3.524-0.08
		c0.613-0.293,1.129-0.686,1.041-1.682c-0.002-0.398-0.247-0.554-0.4-0.801c-0.541-0.606-1.595-0.48-2.643-0.48
		c-1.033,0-2.135,0-3.044,0c-0.388-2.149-0.94-4.133-1.282-6.328c-0.32-0.935-0.434-2.076-0.721-3.044
		c-0.126-1.128-0.472-2.038-1.602-2.163c-0.671,0.023-0.99,0.398-1.362,0.721c-1.073,3.947-2.011,8.027-3.043,12.014
		c-0.528-1.074-0.775-2.429-1.202-3.604c-0.421-1.181-0.473-2.731-2.002-2.804c-1.295,0.067-1.451,1.272-1.842,2.243
		c-0.319,1.016-0.783,1.888-1.041,2.964c-2.083,0-4.165,0-6.248,0c-0.756-1.727-1.373-3.594-1.282-6.167
		c0.146-1.536,0.446-2.917,1.041-4.005c0.456-1.226,1.268-2.096,2.002-3.043c1.705-1.552,3.724-2.792,6.568-3.204
		c0.614,0,1.228,0,1.842,0c1.447,0.235,2.726,0.639,3.765,1.282c1.165,0.517,1.987,1.377,3.284,1.762
		c1.686-0.397,2.695-1.47,4.245-2.002c1.399-0.646,3.227-0.959,5.207-0.801c0.717,0.152,1.375,0.218,2.002,0.4
		c0.883,0.257,1.738,0.623,2.483,1.122c0.121,0.081,0.195,0.228,0.32,0.32c0.074,0.055,0.177,0.021,0.24,0.08
		c0.366,0.34,0.83,0.897,1.282,1.282c0.848,1.208,1.649,2.463,2.083,4.085c0.553,1.534,0.656,3.461,0.561,5.446
		c-0.299,1.757-0.669,3.443-1.442,4.726c-0.228,0.787-0.752,1.277-1.041,2.003c-0.483,0.532-0.938,1.092-1.362,1.683
		c-2.048,2.062-4.488,3.734-7.049,5.285c-1.243,0.813-2.532,1.58-3.845,2.324c-0.577,0.438-1.193,0.834-1.842,1.201
		C22.773,32.396,22.265,32.902,21.546,33.199z"/>
</g>
<g>
	<path fill-rule="evenodd" clip-rule="evenodd" fill="#F2A81E" d="M82.564,3.637c0.129,1.564,0.474,2.913,0.424,4.656
		c2.483,4.218,5.767,7.636,7.195,12.91c-1.541,5.725-4.787,9.744-8.888,12.91c-0.373-4.072-0.91-7.979-2.54-10.793
		c-1.881-0.307-3.605-0.77-4.868-1.693c-2.453,1.795-8.392,3.107-12.275,2.963c-1.605,2.131-2.926,5.819-2.279,9.523
		c-5.82-3.871-8.608-9.852-9.149-12.486c1.223-5.55,4.534-9.011,7.196-13.122c-0.071-1.834,0.285-3.242,0.423-4.868
		C63.719-0.031,76.647-0.031,82.564,3.637z M61.612,6.389c-0.136,3.744-0.744,7.016-1.058,10.582
		c2.509,0.242,4.795,0.708,7.619,0.635c0-0.917,0-1.834,0-2.751c-1.341,0-2.681,0-4.021,0c0.139-1.272-0.279-3.101,0.211-4.021
		c1.27,0,2.54,0,3.81,0c0-1.34,0-2.681,0-4.021c1.272,0.138,3.1-0.279,4.021,0.211c0,1.27,0,2.54,0,3.81c1.341,0,2.681,0,4.021,0
		c-0.139,1.272,0.279,3.101-0.211,4.021c-1.27,0-2.54,0-3.81,0c0,0.917,0,1.834,0,2.751c2.824,0.073,5.11-0.393,7.619-0.635
		c-0.314-3.565-0.922-6.838-1.058-10.582C74.021,4.523,66.346,4.523,61.612,6.389z"/>
</g>
<g>
	<path fill-rule="evenodd" clip-rule="evenodd" fill="#F2A81E" d="M121.397,6.007c0,0.596,0,1.192,0,1.789
		c0.512,0.149,1.299,0.022,1.917,0.064c0,0.831,0,1.662,0,2.492c-0.617,0-1.235,0-1.853,0c-0.145,0.517-0.025,1.295-0.064,1.917
		c-0.809,0-1.618,0-2.428,0c0-0.618,0-1.235,0-1.853c-0.517-0.144-1.295-0.025-1.917-0.064c0-0.831,0-1.661,0-2.492
		c0.639,0,1.278,0,1.917,0c0.038-0.622-0.08-1.4,0.063-1.917C119.802,5.983,120.734,5.862,121.397,6.007z"/>
	<path fill-rule="evenodd" clip-rule="evenodd" fill="#F2A81E" d="M138.011,31.156c-0.018-0.668,0-1.367,0-2.045
		c0-4.893,0-15.809,0-20.779c-0.038-0.325-0.231-0.494-0.32-0.767c-0.28-0.124-0.425-0.384-0.83-0.383
		c-2.556-0.149-5.389-0.021-8.052-0.064l-0.127,23.654c0.037,0.422-0.352,0.416-0.768,0.384c-0.341,0.086-0.137-0.374-0.191-0.575
		c-0.084-7.222,0.112-20.417,0-27.744c-0.006-0.416,0.059-0.849-0.191-1.214c-0.107-0.191-0.293-0.304-0.447-0.447
		c-0.476-0.272-1.046-0.192-1.598-0.192c-3.363,0-7.008,0-10.479,0c-0.552,0-1.108-0.08-1.598,0.128
		c-0.261,0.143-0.463,0.346-0.639,0.575c-0.221,0.904-0.127,3.059-0.127,3.059s0.115,26.434-0.129,26.41
		c-0.423,0.019-0.83-0.006-0.83-0.006l-0.064-24.032h-6.453c0,0-1.363-0.096-1.917,0.191c-0.234,0.086-0.298,0.341-0.512,0.447
		c-0.292,0.649-0.191,1.385-0.191,2.109c0,3.62,0,13.209,0,16.945c0,1.482,0.005,2.962,0,4.346c-0.788,0-1.576,0-2.364,0
		c0,0.958,0,1.917,0,2.875c13.334,0,26.667,0,40,0c0-0.958,0-1.917,0-2.875C139.458,31.156,138.735,31.156,138.011,31.156z
		 M106.765,19.537c-0.682,0-1.363,0-2.045,0c0-0.66,0-1.32,0-1.981c0.682,0,1.363,0,2.045,0
		C106.765,18.217,106.765,18.877,106.765,19.537z M106.765,15.958c-0.436,0.081-1.444,0.117-2.045,0c0-0.639,0-1.278,0-1.917
		c0.559-0.145,1.381-0.025,2.045-0.064C106.765,14.638,106.765,15.298,106.765,15.958z M106.765,12.572c-0.661,0-1.321,0-1.981,0
		c-0.144-0.538-0.024-1.338-0.063-1.981c0.559-0.145,1.381-0.025,2.045-0.064C106.765,11.209,106.765,11.891,106.765,12.572z
		 M109.959,19.537c-0.682,0-1.363,0-2.045,0c0-0.66,0-1.32,0-1.981c0.682,0,1.363,0,2.045,0
		C109.959,18.217,109.959,18.877,109.959,19.537z M109.959,15.958c-0.511,0.146-1.576,0.019-1.98,0.064
		c-0.148-0.554-0.021-1.384-0.064-2.045c0.664,0.04,1.486-0.08,2.045,0.064C109.959,14.681,109.959,15.32,109.959,15.958z
		 M109.896,12.572c-0.661,0-1.321,0-1.981,0c0-0.682,0-1.363,0-2.045c0.664,0.039,1.486-0.081,2.045,0.064
		C109.92,11.234,110.04,12.035,109.896,12.572z M123.314,31.028c-1.98,0-3.961,0-5.942,0c0.043-2.449-0.085-5.069,0.064-7.412
		c1.96,0,3.919,0,5.878,0C123.314,26.087,123.314,28.558,123.314,31.028z M120.183,15.033c-3.275,0-5.932-2.656-5.932-5.932
		c0-3.275,2.656-5.931,5.932-5.931c3.276,0,5.932,2.656,5.932,5.931C126.115,12.377,123.459,15.033,120.183,15.033z M133.027,19.537
		c-0.66,0-1.32,0-1.98,0c0-0.66,0-1.32,0-1.981c0.66,0,1.32,0,1.98,0C133.027,18.217,133.027,18.877,133.027,19.537z
		 M133.027,15.958c-0.546,0.136-1.332,0.031-1.98,0.064c-0.032-0.584,0.019-1.3,0-2.045c0.66,0,1.32,0,1.98,0
		C133.027,14.638,133.027,15.298,133.027,15.958z M133.027,12.572c-0.66,0-1.32,0-1.98,0c0.019-0.707-0.029-1.521,0-2.045
		c0.66,0,1.32,0,1.98,0C133.027,11.209,133.027,11.891,133.027,12.572z M134.177,10.527c0.66,0,1.32,0,1.98,0
		c0.051,0.358-0.032,1.321,0,2.045c-0.66,0-1.32,0-1.98,0C134.177,11.891,134.177,11.209,134.177,10.527z M134.177,19.537
		c0-0.66,0-1.32,0-1.981c0.66,0,1.32,0,1.98,0c0.029,0.444,0.027,1.528,0.064,1.917C135.667,19.622,134.837,19.495,134.177,19.537z
		 M134.241,16.022c-0.148-0.554-0.021-1.384-0.063-2.045c0.66,0,1.32,0,1.98,0c0.088,0.323-0.078,1.564,0.064,1.917
		C135.818,16.168,134.638,15.95,134.241,16.022z"/>
</g>
</svg>
